<svg width="120" height="120" viewBox="0 0 120 120" xmlns="http://www.w3.org/2000/svg">
  <defs>
    <linearGradient id="gradient" x1="0%" y1="0%" x2="100%" y2="100%">
      <stop offset="0%" style="stop-color:#4F46E5;stop-opacity:1" />
      <stop offset="100%" style="stop-color:#7C3AED;stop-opacity:1" />
    </linearGradient>
  </defs>
  
  <!-- Background circle -->
  <circle cx="60" cy="60" r="55" fill="url(#gradient)" stroke="#E5E7EB" stroke-width="2"/>
  
  <!-- Letter H -->
  <g fill="white">
    <rect x="25" y="35" width="4" height="25" rx="2"/>
    <rect x="25" y="65" width="4" height="20" rx="2"/>
    <rect x="37" y="35" width="4" height="25" rx="2"/>
    <rect x="37" y="65" width="4" height="20" rx="2"/>
    <rect x="25" y="57" width="16" height="4" rx="2"/>
  </g>
  
  <!-- Letters UX -->
  <g fill="white" font-family="Arial, sans-serif" font-weight="bold" font-size="18">
    <!-- U -->
    <path d="M 52 35 L 52 55 Q 52 62 59 62 Q 66 62 66 55 L 66 35 L 70 35 L 70 55 Q 70 67 59 67 Q 48 67 48 55 L 48 35 Z"/>
    
    <!-- X -->
    <path d="M 75 35 L 83 47 L 91 35 L 96 35 L 86 50 L 96 65 L 91 65 L 83 53 L 75 65 L 70 65 L 80 50 L 70 35 Z"/>
  </g>
</svg>